<svg xmlns="http://www.w3.org/2000/svg" width="0.88em" height="1em" viewBox="0 0 448 512"><path fill="currentColor" d="M97.872 434.733c-46.338-94.949-73.906-152.29-73.906-153.713c0-2.322 2.831-2 30.672 3.46c48.965 9.614 75.126 12.326 118.735 12.342c57.697.016 104.68-9.122 141.185-27.484c19.311-9.715 30.925-18.327 40.437-29.993c11.716-14.378 15.48-24.28 15.615-40.947c.118-15.852-2.018-24.211-11.19-43.608c-3.63-7.665-6.817-16.463-7.122-19.55c-.475-4.968-.068-5.68 3.595-6.104c8.003-.948 47.507 37.403 62.055 60.241c25.076 39.386 27.111 81.993 5.884 123.195c-13.04 25.314-27.45 42.828-51.577 62.734c-40.099 33.062-86.708 56.086-151.069 74.635c-34.57 9.97-90.471 22.059-101.984 22.059c-2.44 0-7.02-8.003-21.296-37.283l-.034.015zm12.904-153.121c-45.016-5.832-82.79-10.903-83.96-11.275c-2-.644-9.155-24.516-13.191-43.947c-1.017-4.917-2.51-17.939-3.323-28.958c-3.63-49.17 7.069-83.166 35.74-113.735C94.583 31.985 198.516 25.694 315.777 67.37c20.582 7.325 28.755 12.411 24.975 15.581c-2.797 2.34-21.753 2.306-54.51-.102c-51.204-3.764-90.183 3.357-110.274 20.176c-30.588 25.602-25.924 81.724 13.53 162.682c4.273 8.766 8.58 17.345 9.563 19.09c2.29 4.019.628 7.75-3.357 7.563c-1.697-.081-39.915-4.912-84.929-10.746zm151.016-44.047c-35.928-6.46-68.227-28.74-78.654-54.222c-5.002-12.241-4.765-28.213.576-37.774c4.832-8.648 17.31-18.65 28.484-22.839c18.6-6.968 51.17-4.188 74.907 6.41c22.533 10.055 42.507 27.738 49.932 44.184c9.53 21.109 1.593 44.66-18.82 55.901c-13.531 7.443-39.827 11.326-56.443 8.341z"/></svg>